HIERARCHY
ROOT joint_Root
{
	OFFSET 0.0 0.0 0.0
	CHANNELS 6 Xposition Yposition Zposition Zrotation Xrotation Yrotation 
	JOINT Hips
	{
		OFFSET -0.726466 93.3139 -2.00062
		CHANNELS 6 Xposition Yposition Zposition Zrotation Xrotation Yrotation 
		JOINT Spine
		{
			OFFSET 15.7357 0.0 0.0
			CHANNELS 6 Xposition Yposition Zposition Zrotation Xrotation Yrotation 
			JOINT Chest
			{
				OFFSET 8.98455 -0.406207 0.0
				CHANNELS 6 Xposition Yposition Zposition Zrotation Xrotation Yrotation 
				JOINT Neck
				{
					OFFSET 16.3773 0.0 0.0
					CHANNELS 6 Xposition Yposition Zposition Zrotation Xrotation Yrotation 
					JOINT Head
					{
						OFFSET 6.45672 0.0 0.0
						CHANNELS 6 Xposition Yposition Zposition Zrotation Xrotation Yrotation 
						End Site
						{
							OFFSET 0.0 0.0 0.0
						}
					}
				}
				JOINT Shoulder_L
				{
					OFFSET 12.9942 -0.242716 4.98039
					CHANNELS 6 Xposition Yposition Zposition Zrotation Xrotation Yrotation 
					JOINT UpperArm_L
					{
						OFFSET 5.34809 0.0 0.0
						CHANNELS 6 Xposition Yposition Zposition Zrotation Xrotation Yrotation 
						JOINT LowerArm_L
						{
							OFFSET 24.3286 1.87007e-05 0.0
							CHANNELS 6 Xposition Yposition Zposition Zrotation Xrotation Yrotation 
							JOINT Hand_L
							{
								OFFSET 22.2916 0.0 0.0
								CHANNELS 6 Xposition Yposition Zposition Zrotation Xrotation Yrotation 
								End Site
								{
									OFFSET 0.0 0.0 0.0
								}
							}
						}
					}
				}
				JOINT Shoulder_R
				{
					OFFSET 12.9945 -0.242716 -4.98039
					CHANNELS 6 Xposition Yposition Zposition Zrotation Xrotation Yrotation 
					JOINT UpperArm_R
					{
						OFFSET -5.34813 0.0 0.0
						CHANNELS 6 Xposition Yposition Zposition Zrotation Xrotation Yrotation 
						JOINT LowerArm_R
						{
							OFFSET -24.3289 0.000322201 0.0
							CHANNELS 6 Xposition Yposition Zposition Zrotation Xrotation Yrotation 
							JOINT Hand_R
							{
								OFFSET -22.2915 -0.000108084 0.0
								CHANNELS 6 Xposition Yposition Zposition Zrotation Xrotation Yrotation 
								End Site
								{
									OFFSET 0.0 0.0 0.0
								}
							}
						}
					}
				}
			}
		}
		JOINT UpperLeg_L
		{
			OFFSET -2.19248 -6.46944 0.0
			CHANNELS 6 Xposition Yposition Zposition Zrotation Xrotation Yrotation 
			JOINT LowerLeg_L
			{
				OFFSET 39.0811 0.0 -1.23785e-05
				CHANNELS 6 Xposition Yposition Zposition Zrotation Xrotation Yrotation 
				JOINT Foot_L
				{
					OFFSET 40.9854 0.0 -1.26872e-05
					CHANNELS 6 Xposition Yposition Zposition Zrotation Xrotation Yrotation 
					JOINT Toes_L
					{
						OFFSET 11.7543 0.0 0.0
						CHANNELS 6 Xposition Yposition Zposition Zrotation Xrotation Yrotation 
						End Site
						{
							OFFSET 0.0 0.0 0.0
						}
					}
				}
			}
		}
		JOINT UpperLeg_R
		{
			OFFSET -2.19251 6.46944 0.0
			CHANNELS 6 Xposition Yposition Zposition Zrotation Xrotation Yrotation 
			JOINT LowerLeg_R
			{
				OFFSET -39.0811 -0.00228153 -0.0401928
				CHANNELS 6 Xposition Yposition Zposition Zrotation Xrotation Yrotation 
				JOINT Foot_R
				{
					OFFSET -40.9854 0.0 0.0
					CHANNELS 6 Xposition Yposition Zposition Zrotation Xrotation Yrotation 
					JOINT Toes_R
					{
						OFFSET -11.7543 0.0 0.0
						CHANNELS 6 Xposition Yposition Zposition Zrotation Xrotation Yrotation 
						End Site
						{
							OFFSET 0.0 0.0 0.0
						}
					}
				}
			}
		}
	}
}
MOTION
Frames:	7
Frame Time:	0.0333333
0.000000 0.000000 0.000000 0.000000 0.000000 -0.000000 82.427500 91.079900 188.229000 -84.964200 51.222200 -179.824000 15.735700 0.000005 -0.000001 110.815000 82.381800 -110.423000 8.984550 -0.406207 -0.000000 6.479600 5.393500 0.477707 16.377300 -0.000001 -0.000001 4.701690 8.921570 -1.807510 6.456720 -0.000001 -0.000000 2.411760 10.138500 -4.827970 12.994200 -0.242716 4.980390 -89.200000 -1.741240 -65.319900 5.348090 -0.000007 -0.000001 -68.001700 14.536200 0.905033 24.328600 0.000019 0.000005 2.201900 7.170990 -17.119600 22.291600 -0.000001 0.000005 9.492110 5.432200 -4.014470 12.994500 -0.242716 -4.980390 88.799400 4.839510 -76.049600 -5.348130 -0.000001 -0.000004 -51.297100 11.140700 -35.564100 -24.328900 0.000322 -0.000009 -0.241297 -0.618563 -21.231200 -22.291500 -0.000108 -0.000004 14.135500 5.360740 -1.701620 -2.192480 -6.469440 -0.000000 179.055000 -18.804400 -24.896100 39.081100 -0.000007 -0.000012 0.018020 -0.023413 37.581500 40.985400 -0.000006 -0.000013 5.069570 -2.238880 -56.505300 11.754300 -0.000000 0.000003 -0.005883 -0.069774 -19.416400 -2.192510 6.469440 -0.000001 174.521000 25.087200 -176.624000 -39.081100 -0.002282 -0.040193 0.046656 -0.094285 24.688300 -40.985400 0.000008 0.000006 -0.599876 1.412350 -68.010500 -11.754300 -0.000006 -0.000006 -0.522520 -0.643018 -19.498900
0.000000 0.000000 0.000000 0.000000 0.000000 -0.000000 84.601500 90.609800 186.992000 -84.147400 49.811700 178.786000 15.735700 0.000005 -0.000001 112.652000 82.560100 -112.108000 8.984550 -0.406207 -0.000000 5.961880 5.706960 0.791438 16.377300 -0.000001 -0.000001 4.405680 8.799440 -1.844470 6.456720 -0.000001 -0.000000 2.266200 9.729730 -5.239190 12.994200 -0.242716 4.980390 -89.073500 -1.987500 -65.000900 5.348090 -0.000007 -0.000001 -67.884700 11.193400 2.211580 24.328600 0.000019 0.000005 2.375170 8.285560 -16.059600 22.291600 -0.000001 0.000005 11.309200 5.411730 -3.324620 12.994500 -0.242716 -4.980390 88.836600 4.727750 -76.158400 -5.348130 -0.000001 -0.000004 -49.685300 9.526410 -37.207000 -24.328900 0.000322 -0.000009 0.021736 0.055277 -22.307000 -22.291500 -0.000108 -0.000004 15.001900 5.368460 -1.938570 -2.192480 -6.469440 -0.000000 177.394000 -19.881800 -24.213700 39.081100 -0.000007 -0.000012 -0.004293 0.009666 23.945200 40.985400 -0.000006 -0.000013 4.399670 -4.182550 -54.448700 11.754300 -0.000000 0.000003 -0.005534 -0.066548 -19.284900 -2.192510 6.469440 -0.000001 174.896000 25.778200 -175.337000 -39.081100 -0.002282 -0.040193 0.036589 -0.072313 24.710900 -40.985400 0.000008 0.000006 -1.372590 0.994469 -69.131200 -11.754300 -0.000006 -0.000006 -0.820025 -0.973960 -20.013500
0.000000 0.000000 0.000000 0.000000 0.000000 -0.000000 86.838900 89.997900 185.481000 -82.801900 48.557600 176.917000 15.735700 0.000005 -0.000001 115.133000 82.804400 -114.294000 8.984550 -0.406207 -0.000000 5.242050 6.080510 1.398260 16.377300 -0.000001 -0.000001 4.095850 8.616400 -1.856790 6.456720 -0.000001 -0.000000 2.257540 9.370790 -5.623720 12.994200 -0.242716 4.980390 -88.904100 -2.340920 -64.904100 5.348090 -0.000007 -0.000001 -68.398300 8.060580 3.097120 24.328600 0.000019 0.000005 2.569250 10.344400 -14.033000 22.291600 -0.000001 0.000005 13.166000 5.370340 -2.007340 12.994500 -0.242716 -4.980390 88.875900 4.552530 -76.114200 -5.348130 -0.000001 -0.000004 -48.507800 8.511100 -38.027400 -24.328900 0.000322 -0.000009 0.267751 0.610871 -23.746000 -22.291500 -0.000108 -0.000004 15.610400 5.375420 -2.154680 -2.192480 -6.469440 -0.000000 175.304000 -19.677700 -24.388300 39.081100 -0.000007 -0.000012 -0.004504 0.020338 12.484900 40.985400 -0.000006 -0.000013 11.439600 -6.868430 -52.569500 11.754300 -0.000000 0.000003 -0.005210 -0.063488 -19.160100 -2.192510 6.469440 -0.000001 175.656000 25.912600 -174.491000 -39.081100 -0.002282 -0.040193 0.023095 -0.041657 25.403700 -40.985400 0.000008 0.000006 -2.141120 0.522906 -69.785900 -11.754300 -0.000006 -0.000006 -1.350230 -1.535580 -21.293100
0.000000 0.000000 0.000000 0.000000 0.000000 -0.000000 89.132100 89.345200 183.589000 -81.912100 47.897400 175.522000 15.735700 0.000005 -0.000001 117.745000 82.982200 -116.751000 8.984550 -0.406207 -0.000000 4.624120 6.495020 1.725820 16.377300 -0.000001 -0.000001 3.687460 8.589380 -1.790440 6.456720 -0.000001 -0.000000 2.174990 9.247420 -5.918620 12.994200 -0.242716 4.980390 -88.825900 -2.502000 -64.849900 5.348090 -0.000007 -0.000001 -69.239900 5.753250 3.799040 24.328600 0.000019 0.000005 2.378380 11.664400 -11.610000 22.291600 -0.000001 0.000005 14.839700 5.335840 -0.963266 12.994500 -0.242716 -4.980390 88.851800 4.670530 -76.171800 -5.348130 -0.000001 -0.000004 -47.824700 7.937210 -38.282200 -24.328900 0.000322 -0.000009 0.447502 0.952849 -25.209800 -22.291500 -0.000108 -0.000004 15.994600 5.385890 -2.484050 -2.192480 -6.469440 -0.000000 175.257000 -18.726700 -25.345000 39.081100 -0.000007 -0.000012 -0.013193 0.095035 7.903220 40.985400 -0.000006 -0.000013 8.457240 -9.046900 -54.123000 11.754300 -0.000000 0.000003 -0.005465 -0.065902 -19.258500 -2.192510 6.469440 -0.000001 175.933000 25.156900 -174.016000 -39.081100 -0.002282 -0.040193 -0.006357 0.019039 26.915300 -40.985400 0.000008 0.000006 -3.256610 0.075265 -69.464500 -11.754300 -0.000006 -0.000006 -2.637070 -2.815680 -23.543600
0.000000 0.000000 0.000000 0.000000 0.000000 -0.000000 91.492200 88.750200 181.200000 -81.420400 47.523000 174.715000 15.735700 0.000005 -0.000001 119.318000 83.049200 -118.307000 8.984550 -0.406207 -0.000000 4.320730 6.765400 1.766010 16.377300 -0.000001 -0.000001 3.088820 8.633690 -1.622230 6.456720 -0.000001 -0.000000 1.846820 9.236360 -6.085760 12.994200 -0.242716 4.980390 -88.855900 -2.442460 -64.891000 5.348090 -0.000007 -0.000001 -70.406600 4.815470 4.382270 24.328600 0.000019 0.000005 2.004250 12.119300 -9.463330 22.291600 -0.000001 0.000005 15.497900 5.302710 -0.002030 12.994500 -0.242716 -4.980390 88.795800 4.921050 -76.231200 -5.348130 -0.000001 -0.000004 -47.833200 8.129920 -38.095900 -24.328900 0.000322 -0.000009 0.576516 1.155860 -26.551600 -22.291500 -0.000108 -0.000004 16.408800 5.394720 -2.766440 -2.192480 -6.469440 -0.000000 173.865000 -18.607900 -27.200300 39.081100 -0.000007 -0.000012 -0.025251 0.166917 8.602090 40.985400 -0.000006 -0.000013 10.893100 -11.209700 -53.459200 11.754300 -0.000000 0.000003 -0.005326 -0.064598 -19.205400 -2.192510 6.469440 -0.000001 175.594000 23.897200 -173.493000 -39.081100 -0.002282 -0.040193 -0.070407 0.133985 28.817400 -40.985400 0.000008 0.000006 -4.204450 -0.308588 -67.229600 -11.754300 -0.000006 -0.000006 -3.172790 -3.204460 -29.016400
0.000000 0.000000 0.000000 0.000000 0.000000 -0.000000 93.942900 88.286100 178.254000 -82.666500 47.017900 175.387000 15.735700 0.000005 -0.000001 118.925000 83.125900 -118.323000 8.984550 -0.406207 -0.000000 4.255890 6.620490 0.958036 16.377300 -0.000001 -0.000001 2.638610 8.566520 -1.404780 6.456720 -0.000001 -0.000000 1.083650 9.272450 -6.062370 12.994200 -0.242716 4.980390 -89.055500 -2.046910 -65.224300 5.348090 -0.000007 -0.000001 -71.636400 4.991790 4.986810 24.328600 0.000019 0.000005 1.677910 11.777100 -8.167190 22.291600 -0.000001 0.000005 14.026500 5.287130 0.431264 12.994500 -0.242716 -4.980390 88.691000 5.354320 -76.240800 -5.348130 -0.000001 -0.000004 -48.670200 9.104140 -37.120500 -24.328900 0.000322 -0.000009 0.583999 1.112930 -27.734300 -22.291500 -0.000108 -0.000004 16.887500 5.403160 -3.040080 -2.192480 -6.469440 -0.000000 173.248000 -16.140000 -29.823400 39.081100 -0.000007 -0.000012 0.119441 -0.430970 15.490600 40.985400 -0.000006 -0.000013 14.429300 -10.331400 -48.472400 11.754300 -0.000000 0.000003 -0.006335 -0.073860 -19.583100 -2.192510 6.469440 -0.000001 173.539000 22.841400 -172.624000 -39.081100 -0.002282 -0.040193 -0.068516 0.117594 31.412800 -40.985400 0.000008 0.000006 -5.546150 -0.089366 -65.791800 -11.754300 -0.000006 -0.000006 -1.462960 -1.442920 -28.753100
0.000000 0.000000 0.000000 0.000000 0.000000 -0.000000 96.454900 87.999100 174.772000 -84.730300 46.812600 176.829000 15.735700 0.000005 -0.000001 118.145000 83.184400 -118.170000 8.984550 -0.406207 -0.000000 4.276730 6.420470 -0.289781 16.377300 -0.000001 -0.000001 2.196530 8.477530 -1.150350 6.456720 -0.000001 -0.000000 0.449374 9.169290 -6.096950 12.994200 -0.242716 4.980390 -89.418800 -1.275730 -65.504600 5.348090 -0.000007 -0.000001 -72.808000 6.387270 5.466600 24.328600 0.000019 0.000005 1.642120 11.611200 -8.106300 22.291600 -0.000001 0.000005 10.361700 5.286270 0.448733 12.994500 -0.242716 -4.980390 88.538700 5.952750 -76.180700 -5.348130 -0.000001 -0.000004 -49.850300 11.216400 -35.521100 -24.328900 0.000322 -0.000009 0.498447 0.928944 -28.270600 -22.291500 -0.000108 -0.000004 17.240800 5.413870 -3.393160 -2.192480 -6.469440 -0.000000 173.537000 -11.884300 -30.834800 39.081100 -0.000007 -0.000012 0.156115 -0.390544 21.788600 40.985400 -0.000006 -0.000013 12.399700 -11.029900 -44.927500 11.754300 -0.000000 0.000003 -0.006784 -0.077809 -19.744200 -2.192510 6.469440 -0.000001 170.776000 21.064500 -172.113000 -39.081100 -0.002282 -0.040193 -0.032076 0.051128 34.673200 -40.985400 0.000008 0.000006 -6.455680 -0.246778 -62.413400 -11.754300 -0.000006 -0.000006 -0.088760 -0.415769 -33.874400
